<?xml version="1.0" standalone="no"?>
<!DOCTYPE svg PUBLIC "-//W3C//DTD SVG 1.1//EN" "http://www.w3.org/Graphics/SVG/1.1/DTD/svg11.dtd" >
<svg xmlns="http://www.w3.org/2000/svg">
<metadata>Generated by IcoMoon</metadata>
<defs>
<font id="Smashing-Boxes" horiz-adv-x="1024">
<font-face units-per-em="1024" ascent="960" descent="-64" />
<missing-glyph horiz-adv-x="1024" />
<glyph unicode="&#x20;" d="" horiz-adv-x="512" />
<glyph unicode="&#xe600;" d="M520.96 925.44c261.12 0 473.6-212.48 473.6-473.6s-212.48-473.6-473.6-473.6-473.6 212.48-473.6 473.6 212.48 473.6 473.6 473.6zM520.96 963.84c-282.88 0-512-229.12-512-512s229.12-512 512-512c282.88 0 512 229.12 512 512s-229.12 512-512 512v0zM403.2 243.2v435.2l363.52-217.6-363.52-217.6zM441.6 610.56v-299.52l250.88 149.76-250.88 149.76z" horiz-adv-x="1050" />
<glyph unicode="&#xe601;" d="M779.776 508.742c0-149.69-98.77-243.852-138.892-279.32-12.38-9.264-23.18-10.798-33.932 1.536l-23.18 21.596c-9.264 10.798-7.726 26.206 4.654 35.468 16.99 13.918 103.424 80.29 104.96 188.276-3.072 0-21.596-7.726-47.85-7.726-55.528 0-103.376 44.776-103.376 101.842 0 57.11 47.85 103.424 111.104 103.424 55.528 0.048 126.51-38.54 126.51-165.096zM483.42 508.742c0-149.69-98.77-243.852-138.892-279.32-12.38-9.264-24.716-10.798-35.514 1.536l-23.18 21.596c-9.262 10.798-6.144 26.206 4.654 35.468 16.988 13.918 103.424 80.29 104.96 188.276-1.536 0-21.596-7.726-47.848-7.726-55.528 0-103.378 44.776-103.378 101.842 0 57.11 47.848 103.424 111.104 103.424 55.574 0.048 128.094-38.54 128.094-165.096z" />
<glyph unicode="&#xe602;" d="M760.32 354.952l-21.154 20.79 4.23 4.15 21.154-20.79 25.1 24.684-32.108 31.554 4.23 4.15 32.108-31.554 25.52 25.088-21.154 20.79 4.23 4.15 21.154-20.79 11.736 11.548-55.956 55-75.816-74.524-147.39 303.67c3.018 6.454 4.81 13.568 4.81 21.126 0 28.078-23.16 50.85-51.726 50.85s-51.726-22.772-51.726-50.85c0-7.908 1.994-15.306 5.268-21.976l-145.516-299.802-72.744 71.504-55.944-55 74.51-73.244 19.658 19.322 4.23-4.15-19.658-19.322 13.81-13.568-35.704-73.566c0 0 20.898 23.486 35.826 26.422 3.652 7.384 9.216 18.244 16.008 31.286l24.482-24.064 19.658 19.322 4.23-4.15-19.658-19.322 25.1-24.684 30.612 30.086 4.23-4.15-30.612-30.086 25.1-24.67 19.658 19.322 4.23-4.15-19.658-19.322 25.1-24.684 30.598 30.086 4.23-4.15-30.598-30.086 25.1-24.684 19.658 19.322 4.23-4.15-19.658-19.322 25.1-24.67 30.612 30.086 4.23-4.15-30.612-30.086 38.992-38.388 0.324 0.322 0.322-0.322 42.698 41.972-32.094 31.554 4.23 4.15 32.094-31.554 25.1 24.684-21.154 20.79 4.23 4.15 21.154-20.79 25.1 24.684-32.108 31.554 4.23 4.15 32.108-31.554 25.1 24.67-21.154 20.79 4.23 4.15 21.154-20.79 25.1 24.684-32.108 31.554 4.23 4.15 32.108-31.554 25.1 24.67-21.154 20.79 4.23 4.15 21.154-20.79 17.798 17.49c6.090-11.722 11.102-21.504 14.472-28.336 14.928-2.938 35.826-26.422 35.826-26.422l-34.236 70.548 20.548 20.25zM295.208 321.010l-4.23 4.15 32.108 31.554 4.23-4.15-32.108-31.554zM512 220.846l-176.466 173.46c40.744 76.598 87.606 163.394 87.606 163.394l23.89 2.938 62.706 111.952 62.706-111.952 23.89-2.938c0 0 48.062-89.034 89.154-166.332l-173.486-170.524zM730.988 326.116l-32.094 31.554 4.23 4.15 32.094-31.554-4.23-4.15z" />
<glyph unicode="&#xe603;" d="M876.73 522.938c-4.842 23.924-12.196 47.524-21.736 70.004-9.264 22.108-20.806 43.38-34.256 63.21-13.36 19.734-28.626 38.26-45.476 55.11-16.802 16.85-35.376 32.116-55.11 45.476-19.922 13.452-41.192 24.996-63.254 34.35-22.434 9.45-45.986 16.802-70.004 21.69-24.436 5.026-49.712 7.586-74.892 7.586-25.274 0-50.454-2.56-74.986-7.586-23.924-4.842-47.476-12.24-70.004-21.69-22.016-9.356-43.38-20.9-63.302-34.35-19.642-13.312-38.168-28.578-55.11-45.476-16.802-16.802-32.070-35.376-45.382-55.11-13.406-19.828-24.948-41.1-34.304-63.21-9.542-22.48-16.802-46.080-21.736-70.004-4.98-24.436-7.54-49.712-7.54-74.892 0-25.274 2.56-50.548 7.54-75.032 4.888-23.924 12.194-47.43 21.736-69.958 9.356-22.062 20.9-43.428 34.35-63.254 13.266-19.736 28.532-38.214 45.382-55.11 16.896-16.802 35.468-32.070 55.11-45.428 19.92-13.452 41.286-24.996 63.254-34.304 22.528-9.542 46.080-16.802 70.004-21.736 24.528-5.028 49.712-7.586 74.986-7.586 25.18 0 50.454 2.56 74.892 7.586 24.018 4.886 47.568 12.196 70.004 21.736 22.11 9.308 43.38 20.852 63.254 34.304 19.736 13.312 38.26 28.578 55.11 45.428 16.802 16.85 32.070 35.376 45.476 55.11 13.452 19.876 24.996 41.24 34.256 63.254 9.542 22.48 16.896 46.034 21.736 69.958 5.072 24.482 7.634 49.756 7.634 75.032 0 25.18-2.56 50.454-7.634 74.892zM829.904 451.166c-4.654 1.024-112.268 24.156-221.556 10.426-2.188 5.446-4.468 10.892-6.842 16.43-6.656 15.594-13.73 31-21.178 46.128 125.626 51.246 176.64 124.976 177.2 125.86 44.636-54.18 71.586-123.392 72.378-198.842zM722.014 686.64c-0.838-1.21-46.080-70.144-166.074-115.154-54.366 99.888-114.082 179.246-118.832 185.484 23.972 5.91 49.058 9.030 74.892 9.030 80.476 0 154.020-30.022 210.014-79.36zM435.806 756.784c-0.326-0.14-0.698-0.186-0.976-0.278 0.56 0.092 0.884 0.186 0.884 0.186s0.094 0.046 0.094 0.092zM376.274 735.604c4.282-5.68 63.070-85.412 118.086-183.202-152.622-40.588-285.184-39.006-293.562-38.866 20.666 98.49 86.854 180.176 175.476 222.068zM194.002 448.048c0 3.35 0.186 6.702 0.278 10.008 5.632-0.094 162.724-3.678 326.47 45.334 9.076-17.826 17.826-35.98 25.832-54.038-4.282-1.164-8.378-2.466-12.568-3.77-171.66-55.436-258.654-209.92-258.654-209.92s0.094-0.092 0.094-0.14c-50.64 56.32-81.454 130.794-81.454 212.526zM512 130c-76.986 0-147.548 27.37-202.566 72.844 4.19-3.35 7.074-5.538 7.074-5.538s61.022 132.934 249.53 198.656c0.746 0.278 1.35 0.466 2.096 0.698 44.73-116.27 63.254-213.644 67.91-241.432-38.028-16.292-80.058-25.228-124.044-25.228zM689.616 184.274c-3.164 19.178-20.202 112.5-61.812 227.142 102.634 16.384 191.534-11.73 198.096-13.918-14.102-88.576-64.792-165.050-136.284-213.226z" />
<glyph unicode="&#xe604;" d="M685.056 579.212h-117.9v77.264c0 29.044 19.27 35.794 32.814 35.794 13.498 0 83.13 0 83.13 0v127.674l-114.548 0.42c-127.162 0-156.068-95.186-156.068-156.068v-85.086h-73.542v-131.444h73.542c0-168.774 0-372.13 0-372.13h154.624c0 0 0 205.36 0 372.13h104.356l13.592 131.444z" />
<glyph unicode="&#xe605;" d="M884.084 708.934h-101.284v101.284h-50.64v-101.284h-101.19v-50.596h101.19v-101.236h50.64v101.236h101.284zM524.614 394.192c-20.388 15.268-64.652 46.592-64.652 67.584 0 24.576 6.982 36.724 44.080 65.676 37.936 29.696 64.838 68.748 64.838 117.342 0 52.876-21.596 100.818-62.278 124.090h57.624l49.106 51.48c0 0-162.072 0-219.508 0-111.382 0-204.242-82.154-204.242-172.498 0-92.3 61.020-165.888 165.794-165.888 7.262 0 14.382 0.418 21.272 0.93-6.796-13.034-11.636-27.6-11.636-42.822 0-25.648 14.104-40.262 31.558-57.204-13.172 0-25.926-0.372-39.796-0.372-127.534 0-216.808-87.784-216.808-171.986-0.046-83.038 107.566-134.89 235.148-134.89 145.36 0 234.774 82.524 234.774 165.468 0 66.466-14.384 99.932-85.27 153.088zM397.776 515.49c-59.206 1.816-115.432 56.086-125.58 133.772-10.286 77.684 29.418 137.17 88.576 135.402 59.112-1.816 109.754-65.536 119.948-143.22s-23.832-127.674-82.944-125.952zM374.598 112.314c-88.156 0-151.83 55.76-151.83 122.832 0 65.676 74.66 122.368 162.862 121.344 20.526-0.186 39.702-3.49 57.064-9.124 47.894-33.28 86.48-54.038 96.162-92.020 1.816-7.634 2.84-15.546 2.84-23.644 0.048-67.024-43.148-119.39-167.098-119.39z" />
<glyph unicode="&#xe606;" d="M529.040-29.44c-261.12 0-473.6 212.48-473.6 473.6s212.48 473.6 473.6 473.6 473.6-212.48 473.6-473.6-212.48-473.6-473.6-473.6zM529.040-67.84c282.88 0 512 229.12 512 512s-229.12 512-512 512c-282.88 0-512-229.12-512-512s229.12-512 512-512v0zM646.8 652.8v-435.2l-363.52 217.6 363.52 217.6zM608.4 285.44v299.52l-250.88-149.76 250.88-149.76z" horiz-adv-x="1050" />
<glyph unicode="&#xe607;" d="M716.054 568.040c-84.712 0-122.648-46.5-143.918-79.266v-1.584h-1.024c0.372 0.464 0.792 1.072 1.072 1.584v67.956h-159.604c2.048-45.010 0-480.21 0-480.21h159.604v268.194c0 14.384 1.024 28.626 5.26 38.912 11.544 28.626 37.842 58.462 81.92 58.462 57.808 0 80.896-44.126 80.896-108.636v-256.932h159.65v275.364c-0.048 147.596-78.848 216.158-183.856 216.158zM245.434 788.386c-54.552 0-90.252-35.886-90.252-83.036 0-46.034 34.63-82.992 88.156-82.992h1.024c55.668 0 90.298 36.958 90.298 82.99-0.976 47.152-34.584 83.038-89.228 83.038zM164.538 556.778h159.698v-480.21h-159.698v480.21z" />
<glyph unicode="&#xe608;" d="M251.998 387.258c0 149.69 98.77 243.852 138.892 279.318 12.38 9.264 23.18 10.798 33.932-1.536l23.18-21.596c9.262-10.798 7.726-26.206-4.654-35.468-16.942-13.964-103.378-80.292-104.96-188.324 3.072 0 21.596 7.726 47.848 7.726 55.528 0 103.378-44.778 103.378-101.842 0-57.11-47.848-103.424-111.104-103.424-55.528 0-126.51 38.586-126.51 165.144zM548.304 387.258c0 149.69 98.77 243.852 138.892 279.318 12.38 9.264 24.716 10.798 35.514-1.536l23.18-21.596c9.264-10.798 6.144-26.206-4.654-35.468-16.99-13.918-103.424-80.292-104.96-188.276 1.536 0 21.596 7.726 47.85 7.726 55.528 0 103.376-44.778 103.376-101.842 0-57.11-47.85-103.424-111.104-103.424-55.576-0.048-128.092 38.54-128.092 165.096z" />
<glyph unicode="&#xe60a;" d="M113.71 159.792l56.924 67.398c84.852-76.706 166.214-115.060 278.9-115.060 109.242 0 181.294 58.134 181.294 138.288v2.326c0 75.544-40.682 118.552-211.502 154.576-187.112 40.68-273.082 101.096-273.082 234.73v2.326c0 127.814 112.734 221.976 267.264 221.976 118.55 0 203.358-33.7 285.882-99.98l-53.434-70.89c-75.544 61.58-151.086 88.298-234.73 88.298-105.75 0-173.15-58.090-173.15-131.306v-2.326c0-76.706 41.844-119.668 220.812-158.068 181.294-39.472 264.938-105.75 264.938-230.074v-2.326c0-139.498-116.178-230.12-277.738-230.12-129.024 0.092-234.776 43.054-332.38 130.234zM910.848 854.76h92.952l296.356-443.952 296.356 443.952h92.998v-813.52h-91.788v658.944l-296.356-435.806h-4.654l-296.356 434.642v-657.78h-89.508v813.52zM2190.43 860.578h86.016l370.736-819.294h-98.816l-95.278 214.994h-442.788l-96.49-214.992h-94.116l370.736 819.294zM2417.060 338.758l-184.784 414.906-185.95-414.906h370.736zM2737.71 159.792l56.972 67.398c84.852-76.706 166.166-115.060 278.9-115.060 109.242 0 181.296 58.134 181.296 138.288v2.326c0 75.544-40.682 118.552-211.504 154.576-187.112 40.68-273.128 101.096-273.128 234.73v2.326c0 127.814 112.734 221.976 267.312 221.976 118.55 0 203.356-33.7 285.836-99.98l-53.434-70.89c-75.544 61.58-151.086 88.298-234.728 88.298-105.752 0-173.148-58.090-173.148-131.306v-2.326c0-76.706 41.844-119.668 220.812-158.068 181.296-39.472 264.984-105.75 264.984-230.074v-2.326c0-139.498-116.224-230.12-277.738-230.12-129.070 0.092-234.822 43.054-332.428 130.234zM3504.78 854.76h91.788v-361.424h469.504v361.424h91.788v-813.52h-91.788v366.080h-469.504v-366.080h-91.788v813.52zM4396.078 854.76h91.788v-813.52h-91.788v813.52zM4726.038 854.76h86.016l512.512-651.962v651.962h89.506v-813.52h-73.216l-525.36 667.090v-667.090h-89.506v813.52zM5577.914 445.674v2.326c0 223.14 163.886 420.724 407.924 420.724 137.122 0 221.976-39.516 303.336-108.078l-59.252-69.726c-62.744 54.598-132.468 92.952-247.53 92.952-180.132 0-309.154-152.204-309.154-333.498v-2.374c0-194.048 124.368-338.154 321.908-338.154 92.998 0 178.966 36.026 234.73 81.36v202.192h-247.528v82.524h335.872v-324.236c-75.542-67.398-189.44-124.322-326.564-124.322-255.674-0.048-413.744 185.856-413.744 418.304zM6567.658 854.76h377.67c92.998 0 166.168-25.6 212.666-72.052 37.19-37.19 55.762-82.526 55.762-138.288v-2.326c0-91.788-48.826-142.942-106.914-175.476 94.114-36.026 152.25-90.672 152.25-199.914v-2.326c0-148.76-120.878-223.14-304.5-223.14h-386.98v813.52zM6907.020 525.87c79.034 0 129.024 25.6 129.024 86.016v2.282c0 53.434-41.844 83.688-117.388 83.688h-176.64v-171.986h165.004zM6954.682 198.144c79.034 0 126.698 27.88 126.698 88.342v2.326c0 54.598-40.68 88.298-132.516 88.298h-206.848v-178.966h212.666zM7370.566 445.674v2.326c0 231.284 182.458 420.724 433.478 420.724s431.15-187.112 431.15-418.35v-2.374c0-231.238-182.458-420.678-433.478-420.678-250.972 0-431.15 187.066-431.15 418.35zM8048.128 445.674v2.326c0 139.45-102.26 255.674-246.412 255.674-144.104 0-244.038-113.85-244.038-253.3v-2.374c0-139.45 102.26-255.674 246.412-255.674 144.058 0 244.038 113.898 244.038 253.346zM8498.13 454.982l-271.966 399.778h209.174l169.658-263.82 173.148 263.82h203.404l-271.966-397.452 283.556-416.022h-209.174l-182.458 278.9-183.622-278.9h-203.404l283.648 413.696zM9126.726 854.76h613.61v-159.232h-435.806v-165.004h383.534v-159.232h-383.534v-170.868h441.622v-159.184h-619.426v813.52zM9849.484 159.792l105.752 126.698c73.216-60.462 149.924-98.77 242.922-98.77 73.216 0 117.342 29.044 117.342 76.706v2.326c0 45.336-27.88 68.562-163.84 103.424-163.84 41.844-269.592 87.18-269.592 248.692v2.282c0 147.596 118.55 245.2 284.718 245.2 118.55 0 219.648-37.19 302.174-103.472l-92.998-134.796c-72.052 49.942-142.942 80.198-211.504 80.198s-104.588-31.372-104.588-70.89v-2.326c0-53.434 34.862-70.89 175.476-106.914 165.050-42.962 258.002-102.26 258.002-244.038v-2.326c0-161.558-123.206-252.182-298.682-252.182-123.206 0.048-247.53 43.008-345.182 130.188z" horiz-adv-x="10612" />
<glyph unicode="&#xe60c;" d="M884.364 678.96c-27.37-12.148-56.832-20.388-87.738-24.064 31.558 18.896 55.716 48.826 67.164 84.528-29.556-17.548-62.278-30.208-97.048-37.050-27.88 29.696-67.584 48.222-111.524 48.222-84.388 0-152.808-68.376-152.808-152.762 0-11.962 1.35-23.644 3.956-34.816-126.928 6.378-239.568 67.166-314.928 159.65-13.080-22.574-20.62-48.826-20.62-76.846 0-53.014 26.95-99.746 67.956-127.162-25.040 0.792-48.594 7.68-69.212 19.13 0-0.652 0-1.302 0-1.908 0-74.008 52.736-135.774 122.554-149.83-12.752-3.49-26.252-5.352-40.216-5.352-9.868 0-19.408 0.976-28.718 2.746 19.408-60.696 75.868-104.866 142.662-106.124-52.272-40.96-118.086-65.396-189.718-65.396-12.336 0-24.436 0.698-36.444 2.096 67.632-43.334 147.92-68.654 234.218-68.654 281.042 0 434.736 232.82 434.736 434.688 0 6.656-0.14 13.218-0.466 19.782 29.836 21.596 55.76 48.5 76.196 79.126z" />
<glyph unicode="&#xe610;" d="M489.096 452.042l339.538 109.138v-246.568l-339.536-111.832zM474.274 452.042l-278.904 117.22v-253.304l278.904-113.178zM278.904 619.116v-53.894c0 0 20.212-16.168 74.106-16.168s71.412 20.212 71.412 20.212v51.2c0 0-22.906-17.516-72.758-17.516s-72.758 16.168-72.758 16.168zM456.758 673.010v-53.894c0 0 20.212-16.168 74.104-16.168s71.41 20.212 71.41 20.212v51.2c0 0-22.904-17.516-72.758-17.516-51.2 1.346-72.758 16.168-72.758 16.168zM429.81 557.136v-53.894c0 0 20.212-16.168 74.106-16.168s71.412 20.212 71.412 20.212v51.2c0 0-22.904-17.516-72.758-17.516s-72.758 16.168-72.758 16.168zM599.578 611.032v-53.894c0 0 20.212-16.168 74.106-16.168s71.412 20.212 71.412 20.212v51.2c0 0-22.904-17.516-72.758-17.516s-72.758 16.168-72.758 16.168z" />
<glyph unicode="&#xe611;" d="M498.12 468.652l-273.806 342.5h25.884l261.83-328.562 260.892 328.562h26.852l-274.802-342.5 284.786-354.446h-25.884l-271.844 340.508-270.79-340.536h-26.88l283.762 354.476z" />
<glyph unicode="&#xe613;" d="M629.222 782.146l-324.716-400.168h192.674l-113.178-268.126 335.496 389.39h-192.674z" />
<glyph unicode="&#xe615;" d="M677.698 735.002h-331.4l-165.712-287.002 165.712-287.002h331.412l165.7 287.002-165.712 287.002zM512 287.866c-88.442 0-160.134 71.692-160.134 160.134s71.706 160.134 160.134 160.134 160.134-71.692 160.134-160.134-71.706-160.134-160.134-160.134z" />
<glyph unicode="&#xe619;" d="M771.2 75.636h-631.564v652.21c0 17.354 6.248 34.236 17.978 47.026 24.752 26.99 57.22 37.814 99.782 37.114 169.798-2.838 339.642-0.93 509.486-1.116 77.778-0.092 107.892-29.976 107.938-107.148 0.14-168.122-1.63-336.29 1.070-504.414 0.716-43.774-6.572-80.76-35.244-109.432-16.942-16.942-56.59-14.24-69.448-14.24zM732.438 496.128c0.978-173.148-78.616-273.686-214.388-278.016-60.882-1.956-113.99 16.058-159.324 56.042-66.978 59.114-83.502 136.378-73.542 222.394-21.738 0-39.656 0-61.534 0 0-101.47-1.628-199.914 1.862-298.17 0.512-13.824 26.020-38.074 40.308-38.308 161.56-2.746 278.54-2.7 440.098 0 49.92 0 82.62 57.786 84.98 71.61 3.49 98.258 1.862 162.7 1.862 264.494-21.504-0.046-39.236-0.046-60.322-0.046zM650.566 442.228c0.698 77.498-65.164 143.592-143.034 143.592-74.612 0-140.66-64.932-142.29-139.822-1.724-77.36 63.674-144.756 141.080-145.456 78.708-0.792 143.546 62.93 144.244 141.684zM717.918 584.658c73.774-0.372 74.612 0.278 74.986 61.3 0.466 77.964-2.14 81.128-66.606 81.314-75.496 0.234-76.334-0.466-76.66-65.256-0.466-77.034-0.466-77.034 68.282-77.358z" />
<glyph unicode="&#xe61b;" d="M867.706 503.242l-350.316 129.348-361.096-37.726 39.074-18.864 86.232-41.768v-41.768c-2.694 0-4.042-1.346-4.042-4.042v0c0-1.346 1.346-2.694 2.694-4.042-6.738-2.694-12.126-9.432-12.126-17.516v-36.378c0-105.096-30.99-137.432-43.116-146.864 1.348-1.346 2.694-2.696 4.042-4.042 5.39 5.39 14.82 14.822 21.558 33.684-6.736-17.516-13.474-28.294-20.21-35.032 1.348 0 1.348-1.346 2.694-1.346 6.736 5.39 14.82 14.822 22.906 35.032-6.736-18.862-14.82-29.642-20.212-36.38 1.348-1.346 2.694-1.346 4.042-2.696 4.042 5.39 8.084 12.126 12.126 21.558-4.042-9.432-6.736-16.168-10.778-22.904 0 0 1.348 0 1.348-1.346 5.39 5.39 12.126 14.822 18.864 29.642-5.39-14.822-10.778-24.254-16.168-30.99 1.348 0 1.348-1.346 2.694-1.346 0 0 1.348 0 1.348 0 2.694 2.696 4.042 6.736 6.736 10.778-1.348-4.042-4.042-6.736-5.39-10.778 1.348 0 1.348 0 2.694-1.346 5.39 5.39 12.126 14.822 17.516 29.642-5.39-13.474-10.778-22.904-14.822-29.642 1.346 0 2.694-1.346 4.042-1.346 21.558 21.558 48.504 68.716 48.504 168.42v36.38c0 8.084-5.39 14.822-12.126 17.516 1.346 0 2.694 1.346 2.694 4.042v0c0 2.694-1.346 4.042-4.042 4.042v0 33.684h167.074c0 0 1.346 1.346 1.346 1.346 2.694-2.694 9.432-5.39 18.862-5.39 4.042 0 8.084 0 10.778 1.346-2.694-1.346-8.084-2.696-13.474-4.042-6.738-1.346-12.126 0-16.168 1.346h-161.684l20.212-9.432 18.862-9.432 130.694-63.326-136.084 51.2c-17.516-39.074-21.558-76.8-21.558-76.8s10.778-61.98 177.854-61.98 177.852 35.032 177.852 35.032-2.696 47.158-12.126 82.188l210.188 32.336z" />
<glyph unicode="&#xe61d;" d="M625.14 340.764c-12.49-12.424-12.49-32.566 0-44.976 12.504-12.424 32.754-12.424 45.258 0 12.49 12.424 12.49 32.566 0 44.976-12.518 12.424-32.754 12.424-45.258 0zM634.61 757.894h-245.222c-103.262 0-187.284-84.022-187.284-187.284v-245.222c0-103.262 84.022-187.284 187.284-187.284h245.222c103.276 0 187.284 84.022 187.284 187.284v245.222c0 103.262-84.008 187.284-187.284 187.284zM577.28 526.416l7.788 28.834 80.074 55.848 23.902-23.768-56.172-79.616-29.010-7.734-34.884-34.694-26.584 26.408 34.884 34.722zM413.804 275.766c-10.050-9.996-32.094-4.27-49.234 12.774-17.152 17.044-22.892 38.952-12.84 48.95l100.892 100.284 62.088-61.722-100.904-100.284zM678.264 287.946c-15.682-15.602-41.134-15.602-56.818 0l-205.932 204.718c-19.536-2.492-39.976 3.652-54.986 18.58-18.014 17.908-23.362 43.6-16.142 66.182 13.23-13.164 23.7-23.322 26.92-26.53 11.508-11.438 27.432-14.148 35.572-6.062l12.988 12.922c8.138 8.084 5.416 23.916-6.090 35.368-3.22 3.192-13.448 13.608-26.678 26.76 22.702 7.182 48.546 1.858 66.56-16.048 15.010-14.914 21.194-35.248 18.676-54.676l205.932-204.72c15.682-15.602 15.682-40.894 0-56.496zM701.98 835.368h-379.958c-107.156 0-194.020-86.866-194.020-194.020v-386.694c0-107.156 86.864-194.020 194.020-194.020h379.958c107.156 0 194.020 86.866 194.020 194.020v386.694c0 107.156-86.866 194.022-194.020 194.022zM835.368 325.39c0-110.7-90.058-200.758-200.758-200.758h-245.222c-110.7 0-200.758 90.058-200.758 200.758v245.222c0 110.7 90.058 200.758 200.758 200.758h245.222c110.7 0 200.758-90.058 200.758-200.758v-245.222z" />
<glyph unicode="&#xe61e;" d="M663.096 468.652l-10.724 13.938-260.892 328.562h-26.852l274.802-342.5-284.786-354.476h25.884l271.844 340.508 10.724 13.966z" />
<glyph unicode="&#xe620;" d="M256 778.106v-661.558h512v661.558h-512zM322.022 704h150.906v-150.904h-150.904v150.904zM708.716 221.642h-390.738v32.336h390.738v-32.336zM708.716 303.832h-390.738v32.336h390.738v-32.336zM708.716 387.368h-390.738v32.336h390.738v-32.336zM708.716 469.558h-390.738v32.336h390.738v-32.336zM708.716 551.748h-196.716v32.336h196.716v-32.336zM708.716 635.284h-196.716v32.336h196.716v-32.336z" />
<glyph unicode="&#xe621;" d="M359.11 468.652l10.724 13.938 260.892 328.562h26.852l-274.802-342.5 284.786-354.446h-25.884l-271.844 340.508-10.724 13.938z" />
<glyph unicode="&#xe622;" d="M731.62 625.854c-6.736 17.516-24.254 10.778-35.032 2.694-10.778-6.738-20.212-25.6-29.642-45.81-10.778-4.042-21.558-25.6-28.294-33.684-1.346-2.696-4.042-4.042-6.736-6.736 0 0-1.346 26.946 0 39.074 0 0 0 0 0 0 0 2.696 1.346 5.39 1.346 9.432 1.346 17.516-6.736 22.904-1.346 43.116 4.042 20.212-1.346 51.2 0 55.242 2.696 16.168 0 29.642 1.346 35.032 0 6.736-4.042 6.736-4.042 6.736 2.696 13.474 2.696 36.38 2.696 39.074s-6.736 1.348-6.736 1.348c-13.474 8.084-29.642-4.042-33.684-17.516-2.696-10.778-1.346-44.464 0-60.632 1.346-5.39 2.696-10.778 2.696-16.168 1.346-10.778 2.696-24.254 0-37.726-4.042 13.474-9.432 24.252-9.432 24.252-4.042 35.032-18.864 63.326-18.864 63.326-1.346 12.126-8.084 36.38-9.432 43.116-1.346 5.39-4.042 4.042-4.042 4.042-4.042 37.726-12.126 41.768-12.126 41.768-2.696 0-5.39-1.346-5.39-1.346-4.042 0-25.6-2.696-28.296-28.294-2.694-24.254 13.474-66.022 13.474-66.022 0-49.852 12.126-91.62 12.126-91.62-4.042-22.904-1.346-49.854 1.346-61.98s0-24.252 24.254-59.284c24.254-35.032 21.558-43.116 21.558-43.116-4.042 12.126-17.516 29.642-40.422 59.284-21.558 29.642-47.158 79.496-59.284 86.232-10.778 8.084-25.6 1.346-43.116-5.39s-52.548-18.864-67.368-28.296c-10.778-6.736-30.988-29.642-37.726-37.726-13.474 18.862-35.032 16.168-43.116 10.778s5.39-40.422 5.39-40.422v-2.694c0 0 4.042-10.778 5.39-37.726s16.168-40.42 30.988-63.326c16.168-22.904 24.252-47.158 32.336-60.632s14.822-13.474 26.948-40.422c10.778-26.948 35.032-71.412 64.674-99.706 14.822-13.474 29.642-40.422 40.42-63.326 0 0 0 0 0 0 9.432-18.862 47.158-21.558 84.884-5.39 33.684 14.822 56.59 40.422 55.242 60.632-1.346 6.736-4.042 13.474-9.432 22.904-16.168 26.948-18.862 33.684-20.212 71.41s1.346 84.884 8.084 115.874c5.39 20.212 5.39 36.38 4.042 49.854 1.346 2.694 4.042 5.39 6.736 6.738 6.736 5.39 25.6 36.38 25.6 36.38 14.822 13.474 22.904 33.684 22.904 33.684 13.474 13.474 18.862 32.336 18.862 32.336 6.736 5.39 14.822 24.252 18.864 28.296 2.696 4.042 0 5.388 0 5.388s18.864 18.864 20.212 21.558c5.39 5.39 1.346 5.39 1.346 5.39zM402.862 422.4c-8.084 16.168-26.948 44.464-36.38 53.894-1.346 10.778-6.738 22.904-13.474 36.38 30.988-2.694 55.242 22.904 55.242 22.904-4.042 1.346-5.39 5.39-5.39 5.39 18.862-10.778 44.464 4.042 44.464 4.042 4.042-33.684 30.988-57.938 30.988-57.938-12.126-24.252 4.042-47.158 4.042-47.158-28.296-41.768-67.368-29.642-79.496-17.516z" />
<glyph unicode="&#xe625;" d="M637.732 422.81h-73.546v-63.646h75.618c28.092 0 45.024 9.9 45.024 31.392v0.828c0 19.418-14.444 31.424-47.096 31.424zM482.98 926.718l-414.574-239.36v-478.702l414.574-239.36 414.576 239.36v478.702l-414.574 239.36zM446.846 388.914c0-57.442-43.812-89.664-106.18-89.664-43.812 0-88.022 15.274-122.748 46.268l37.61 45.038c26.020-21.492 53.314-35.124 86.364-35.124 26.020 0 41.724 10.332 41.724 27.278v0.828c0 16.12-9.9 24.376-58.238 36.764-58.274 14.876-95.85 30.994-95.85 88.438v0.83c0 52.486 42.138 87.192 101.206 87.192 42.17 0 78.106-13.216 107.458-36.764l-33.066-47.942c-25.604 17.778-50.81 28.524-75.188 28.524-24.394 0-37.196-11.144-37.196-25.19v-0.846c0-19.004 12.404-25.19 62.384-37.992 58.67-15.29 91.736-36.366 91.736-86.778v-0.862zM748.042 382.712c0-52.884-42.95-79.332-108.236-79.332h-137.606v289.24h134.306c33.050 0 59.068-9.104 75.618-25.62 13.2-13.216 19.818-29.352 19.818-49.168v-0.83c0-32.634-17.362-50.842-38.024-62.418 33.464-12.802 54.11-32.22 54.11-71.058v-0.812zM668.708 506.256v0.83c0 19.004-14.858 29.75-41.722 29.75h-62.784v-61.142h58.672c28.092 0 45.836 9.072 45.836 30.562z" horiz-adv-x="966" />
</font>
</defs>
</svg>
